<svg viewBox="0 0 16 16" fill="none" xmlns="http://www.w3.org/2000/svg">
<path d="M11.4505 10.6665H4.55046C4.36157 10.6665 4.20312 10.5998 4.07512 10.4665C3.94712 10.3332 3.88335 10.1776 3.88379 9.99984C3.88379 9.94428 3.89201 9.88584 3.90846 9.8245C3.9249 9.76317 3.95001 9.70495 3.98379 9.64984L7.43379 4.2165C7.50046 4.1165 7.58379 4.04139 7.68379 3.99117C7.78379 3.94095 7.88935 3.91606 8.00046 3.9165C8.11157 3.91695 8.21713 3.94184 8.31713 3.99117C8.41713 4.0405 8.50046 4.11562 8.56713 4.2165L12.0171 9.64984C12.0505 9.70539 12.0756 9.76362 12.0925 9.8245C12.1093 9.88539 12.1176 9.94384 12.1171 9.99984C12.1171 10.1776 12.0531 10.3332 11.9251 10.4665C11.7971 10.5998 11.6389 10.6665 11.4505 10.6665Z" fill="#6A71E5"/>
</svg>
