<svg width="24" height="25" viewBox="0 0 24 25" fill="none" xmlns="http://www.w3.org/2000/svg">
<path d="M13.0498 16.1494V23.25H10.9502V16.1494H13.0498ZM22.1943 12.4502H19.9482V20.9004C19.9481 21.5403 19.7038 22.1441 19.2852 22.5811C18.8928 22.9904 18.3791 23.2182 17.8486 23.2441V16.0996C17.8486 14.8787 17.4025 13.6948 16.5869 12.792C15.7699 11.8876 14.6416 11.3323 13.4287 11.2578L13.4092 11.2568H13.3887L13.1865 11.25H10.8496C9.58584 11.2501 8.38546 11.7746 7.50879 12.6895C6.63382 13.6026 6.15046 14.8302 6.15039 16.0996V23.2441C5.62007 23.2181 5.10609 22.9904 4.71387 22.5811C4.29529 22.1441 4.05187 21.5403 4.05176 20.9004V12.4502H1.80469L11.999 1.80957L22.1943 12.4502Z" stroke="#6A71E5" stroke-width="2.5"/>
</svg>
