<svg viewBox="0 0 23 24" fill="none" xmlns="http://www.w3.org/2000/svg">
<path d="M12.5498 15.6494V22.75H10.4502V15.6494H12.5498ZM21.6943 11.9502H19.4482V20.4004C19.4481 21.0403 19.2038 21.6441 18.7852 22.0811C18.3928 22.4904 17.8791 22.7182 17.3486 22.7441V15.5996C17.3486 14.3787 16.9025 13.1948 16.0869 12.292C15.2699 11.3876 14.1416 10.8323 12.9287 10.7578L12.9092 10.7568H12.8887L12.6865 10.75H10.3496C9.08584 10.7501 7.88546 11.2746 7.00879 12.1895C6.13382 13.1026 5.65046 14.3302 5.65039 15.5996V22.7441C5.12007 22.7181 4.60609 22.4904 4.21387 22.0811C3.79529 21.6441 3.55187 21.0403 3.55176 20.4004V11.9502H1.30469L11.499 1.30957L21.6943 11.9502Z" stroke="#6A71E5" stroke-width="2.5"/>
</svg>
