<svg width="300" height="300" viewBox="0 0 300 300" fill="none" xmlns="http://www.w3.org/2000/svg">
<rect width="300" height="300" rx="60" fill="#6A71E5"/>
<path d="M221.313 128C222.379 128.133 223.313 128.4 224.113 128.8C224.913 129.2 225.479 129.933 225.813 131C226.613 133.4 225.746 135.1 223.213 136.1C222.413 136.433 221.613 136.633 220.813 136.7C220.013 136.767 219.246 136.8 218.513 136.8H172.013C170.679 136.8 169.279 136.767 167.813 136.7C166.413 136.7 164.979 136.667 163.513 136.6C162.113 136.533 160.946 136.033 160.013 135.1C159.079 134.167 158.546 132.933 158.413 131.4L158.113 124.4C158.046 123.667 158.113 122.8 158.313 121.8C158.579 120.8 159.013 119.967 159.613 119.3C160.546 118.3 161.713 117.667 163.113 117.4C164.513 117.067 165.946 116.9 167.413 116.9C168.346 116.9 169.779 116.9 171.713 116.9C173.713 116.9 176.446 116.9 179.913 116.9C183.379 116.833 187.746 116.8 193.013 116.8C198.346 116.8 204.813 116.8 212.413 116.8V113H165.213C164.546 113 163.946 113 163.413 113C162.879 113 162.346 112.933 161.813 112.8C161.213 112.667 160.679 112.533 160.213 112.4C159.746 112.267 159.346 111.933 159.013 111.4C158.079 110 157.846 108.567 158.313 107.1C158.513 106.567 158.813 106.167 159.213 105.9C159.613 105.567 160.079 105.3 160.613 105.1C161.146 104.9 161.646 104.767 162.113 104.7C162.646 104.633 163.113 104.567 163.513 104.5C164.513 104.3 165.546 104.2 166.613 104.2C167.613 104.2 168.613 104.2 169.613 104.2C170.679 104.2 171.946 104.2 173.413 104.2C174.946 104.2 176.746 104.233 178.813 104.3C180.946 104.3 183.579 104.3 186.713 104.3C189.846 104.3 193.579 104.3 197.913 104.3C202.246 104.3 207.413 104.3 213.413 104.3C216.813 104.3 219.413 104.833 221.213 105.9C223.013 106.9 223.913 108.567 223.913 110.9V118.6C223.913 119.533 223.679 120.467 223.213 121.4C222.813 122.267 222.079 123 221.013 123.6C220.146 124.133 219.279 124.4 218.413 124.4C217.546 124.467 216.679 124.5 215.813 124.5H170.413V128H221.313ZM165.613 55.5C166.413 55.1667 167.179 55 167.913 55C168.246 55 168.613 55.0333 169.013 55.1C169.413 55.1 169.779 55.1667 170.113 55.3C171.313 55.6333 172.213 56.2333 172.813 57.1C173.346 57.8333 173.713 58.6 173.913 59.4C174.046 59.9333 174.146 60.5 174.213 61.1C174.279 61.7 174.346 62.3 174.413 62.9L175.013 69.1C175.079 69.7 175.079 70.1333 175.013 70.4C174.946 70.6667 175.046 71.0667 175.313 71.6C175.513 72.1333 175.746 72.5 176.013 72.7C176.346 72.8333 176.713 72.9333 177.113 73C177.513 73 177.913 72.9667 178.313 72.9C178.713 72.8333 179.113 72.8333 179.513 72.9H208.513C209.246 72.8333 210.013 72.8333 210.813 72.9C211.613 72.9 212.413 72.9 213.213 72.9C214.413 72.9 215.713 73.1 217.113 73.5C218.579 73.8333 219.713 74.6667 220.513 76C221.179 77.0667 221.379 77.9667 221.113 78.7C220.846 79.3667 220.213 80.1333 219.213 81C218.413 81.6667 217.479 82.1667 216.413 82.5C215.413 82.7667 214.379 82.9667 213.313 83.1C212.246 83.1667 211.146 83.2 210.013 83.2C208.946 83.2 207.913 83.2 206.913 83.2C206.379 83.2 205.813 83.2 205.213 83.2C204.613 83.1333 204.046 83.1333 203.513 83.2H200.113C199.579 83.2 198.379 83.2 196.513 83.2C194.713 83.2 192.779 83.2 190.713 83.2C188.646 83.2 186.679 83.2 184.813 83.2C183.013 83.2 181.846 83.2 181.313 83.2C180.313 83.1333 179.279 83.1333 178.213 83.2C177.146 83.2 176.079 83.2 175.013 83.2C173.879 83.2 172.646 83.2 171.313 83.2C170.046 83.1333 168.813 82.9333 167.613 82.6C166.479 82.2667 165.446 81.7333 164.513 81C163.579 80.2667 162.913 79.2 162.513 77.8C162.246 77.0667 162.013 76.4333 161.813 75.9C161.679 75.3 161.613 74.6333 161.613 73.9C161.679 73.5667 161.713 72.8667 161.713 71.8C161.713 70.7333 161.679 69.6 161.613 68.4C161.613 67.1333 161.579 65.9667 161.513 64.9C161.513 63.8333 161.513 63.1333 161.513 62.8C161.646 61.9333 161.813 61.1 162.013 60.3C162.213 59.4333 162.513 58.6333 162.913 57.9C163.179 57.5 163.579 57.1 164.113 56.7C164.713 56.2333 165.213 55.8333 165.613 55.5ZM162.313 88.7C162.846 88.6333 163.446 88.6 164.113 88.6C164.846 88.5333 165.546 88.5 166.213 88.5H168.613H190.213C193.679 88.4333 197.079 88.4 200.413 88.4C203.279 88.4 206.246 88.4 209.313 88.4C212.446 88.4 215.113 88.4333 217.313 88.5H217.713C219.046 88.5667 220.379 88.6 221.713 88.6C223.046 88.6 224.346 88.8333 225.613 89.3C227.679 90.1667 228.713 91.6 228.713 93.6C228.713 95.2667 228.046 96.6 226.713 97.6C225.713 98.5333 224.446 99.0667 222.913 99.2C221.379 99.3333 219.946 99.3333 218.613 99.2H162.213C162.146 99.2 161.846 99.2 161.313 99.2C160.779 99.2 160.146 99.1333 159.413 99C158.746 98.8667 158.046 98.7 157.313 98.5C156.579 98.2333 155.979 97.8333 155.513 97.3C155.113 96.9 154.813 96.4 154.613 95.8C154.413 95.2 154.313 94.6 154.313 94C154.313 92.6667 154.746 91.5667 155.612 90.7C156.479 89.9 157.346 89.4333 158.213 89.3C159.146 89.1 160.113 88.9333 161.113 88.8C161.313 88.8 161.513 88.8 161.713 88.8C161.913 88.7333 162.113 88.7 162.313 88.7Z" fill="#F0EEEE"/>
<g clip-path="url(#clip0_137_4299)">
<path d="M139.337 91.1981C140.47 91.2648 141.604 91.4314 142.737 91.6981C143.937 91.9648 145.004 92.4648 145.937 93.1981C146.87 93.9314 147.337 94.9648 147.337 96.2981C147.337 96.9648 147.204 97.6981 146.937 98.4981C146.737 99.2981 146.437 99.8647 146.037 100.198C145.504 100.731 144.804 101.131 143.937 101.398C143.137 101.598 142.337 101.765 141.537 101.898C140.737 101.965 140.037 101.998 139.437 101.998C138.904 101.998 138.604 101.998 138.537 101.998L85.2371 102.098C83.7038 102.165 82.1038 102.165 80.4371 102.098C78.8371 102.031 77.4704 101.531 76.3371 100.598C74.8038 99.4648 74.0371 98.1648 74.0371 96.6981C74.0371 95.7648 74.3371 94.8314 74.9371 93.8981C75.6038 92.8981 76.4704 92.2314 77.5371 91.8981C78.9371 91.4314 80.3704 91.2314 81.8371 91.2981C83.3038 91.2981 84.8038 91.2648 86.3371 91.1981C87.9371 91.1314 89.3038 91.0981 90.4371 91.0981C91.6371 91.0981 92.7704 91.0981 93.8371 91.0981C94.9704 91.0981 96.1371 91.1314 97.3371 91.1981C98.5371 91.1981 99.9704 91.1981 101.637 91.1981V83.5981C93.3038 83.1314 87.0038 81.6981 82.7371 79.2981C78.4704 76.8981 76.3371 73.0981 76.3371 67.8981C76.3371 62.4314 79.2038 58.4314 84.9371 55.8981C90.6704 53.3647 99.1371 52.0647 110.337 51.998C115.404 51.998 120.037 52.2647 124.237 52.7981C128.437 53.3314 132.037 54.2314 135.037 55.4981C138.037 56.6981 140.337 58.3314 141.937 60.3981C143.604 62.3981 144.437 64.8981 144.437 67.8981C144.437 73.4314 142.037 77.3981 137.237 79.7981C132.504 82.1314 125.304 83.4648 115.637 83.7981C115.704 84.9981 115.737 86.3314 115.737 87.7981C115.804 89.2648 115.837 90.3981 115.837 91.1981C117.704 91.1981 119.704 91.1981 121.837 91.1981C123.97 91.1314 126.104 91.0981 128.237 91.0981C130.37 91.0981 132.404 91.0981 134.337 91.0981C136.27 91.0981 137.937 91.1314 139.337 91.1981ZM130.737 67.8981C130.737 66.8314 130.237 65.8981 129.237 65.0981C128.237 64.2981 126.837 63.6314 125.037 63.0981C123.237 62.5648 121.07 62.1648 118.537 61.8981C116.07 61.6314 113.337 61.4981 110.337 61.4981C97.2038 61.4981 90.6371 63.6314 90.6371 67.8981C90.6371 69.7648 92.3038 71.2314 95.6371 72.2981C99.0371 73.3648 103.87 73.8648 110.137 73.7981C112.537 73.7981 114.937 73.7314 117.337 73.5981C119.804 73.3981 122.037 73.0981 124.037 72.6981C126.037 72.2314 127.637 71.6313 128.837 70.8981C130.104 70.0981 130.737 69.0981 130.737 67.8981Z" fill="#F0EEEE"/>
<path d="M107.123 102.805C109.689 102.567 112.348 102.6 114.878 102.899C116.187 103.054 116.834 103.105 117.422 103.215C117.984 103.321 118.484 103.482 119.458 103.869C121.315 104.606 123.242 106.1 124.146 107.127C124.376 107.618 124.42 107.922 124.397 108.206C124.37 108.54 124.261 108.852 124.104 109.442C123.962 109.699 123.841 109.967 123.728 110.22C123.603 110.499 123.484 110.765 123.34 111.028C123.058 111.541 122.685 112.034 122.032 112.461C120.909 113.197 120.261 113.745 119.078 114.201C118.979 114.128 118.878 114.112 118.863 114.11C118.799 114.099 118.748 114.104 118.732 114.105C118.71 114.107 118.692 114.11 118.682 114.112C118.662 114.116 118.646 114.12 118.638 114.123C118.608 114.131 118.574 114.142 118.55 114.151L117.178 114.644L117.406 114.718C117.398 114.724 117.39 114.731 117.382 114.738C117.373 114.745 117.287 114.815 117.237 114.937C117.207 115.011 117.172 115.154 117.237 115.316C117.303 115.477 117.427 115.555 117.499 115.587C117.617 115.64 117.725 115.632 117.739 115.631C117.802 115.628 117.861 115.615 117.894 115.607H117.896C118.339 115.499 118.727 115.384 119.075 115.264L145.058 123.763L145.091 123.773C147.806 124.459 149.855 125.501 150.979 126.688C151.555 127.297 151.943 127.906 152.104 128.485C152.259 129.045 152.207 129.594 151.872 130.139C151.065 131.452 149.97 133.007 147.612 133.796C146.414 134.198 144.814 134.397 143.087 134.493C141.367 134.588 139.562 134.579 137.965 134.579L110.988 134.578H110.987L82.1943 134.579C81.3913 134.578 80.6099 134.601 79.8584 134.62C79.1039 134.639 78.3794 134.655 77.6777 134.645C76.2733 134.626 74.9893 134.503 73.7979 134.104C71.4694 133.325 70.4625 131.506 69.6152 130.138C69.2537 129.554 69.132 128.98 69.2109 128.425C69.2907 127.866 69.5828 127.279 70.1328 126.692C71.353 125.39 73.4427 123.199 76.0264 122.539L76.0254 122.538L94.1299 118.101L94.1348 118.1C95.4684 117.76 96.7488 117.925 98.3848 118.113C99.9233 118.29 100.924 118.721 101.682 119.289C101.88 119.437 102.006 119.809 101.957 120.402C101.91 120.962 101.72 121.52 101.554 121.796C101.421 122.016 101.317 122.284 101.227 122.516C101.13 122.764 101.038 122.999 100.921 123.22C100.696 123.645 100.399 123.976 99.8662 124.114L91.9346 125.716L76.1416 125.603L75.8145 124.799L75.5908 125.599L75.3398 125.598C75.0838 125.597 74.9287 125.759 74.8682 125.836C74.8 125.923 74.7562 126.02 74.7275 126.095C74.668 126.251 74.6255 126.441 74.5957 126.625C74.5359 126.994 74.5091 127.448 74.54 127.785C74.548 127.871 74.5613 127.961 74.582 128.045C74.6005 128.12 74.6352 128.235 74.7109 128.339C74.7967 128.458 74.9863 128.619 75.2627 128.576C75.475 128.542 75.6063 128.401 75.6621 128.334C75.7845 128.188 75.8896 127.964 75.9912 127.703C76.0982 127.895 76.2019 128.066 76.3076 128.214C76.5889 128.608 76.8957 128.889 77.249 129.022C77.621 129.161 77.9693 129.109 78.2637 128.984C78.5411 128.866 78.7909 128.677 78.9961 128.512C79.2203 128.332 79.3944 128.181 79.583 128.054C79.7663 127.931 79.9063 127.872 80.0215 127.86C80.1654 127.844 80.4722 127.887 80.9629 128.593C80.9622 128.647 80.9678 128.709 80.9893 128.775C81.0211 128.872 81.1067 129.033 81.3027 129.107C81.4238 129.153 81.534 129.143 81.6201 129.121C81.9682 129.203 82.2835 129.286 82.5605 129.356C82.7179 129.396 82.8663 129.432 82.9951 129.458C83.1167 129.483 83.2533 129.506 83.375 129.506C83.4342 129.506 83.527 129.502 83.625 129.467C83.7301 129.43 83.8867 129.34 83.9639 129.147C84.0349 128.969 83.9949 128.81 83.9648 128.728C83.9331 128.642 83.8863 128.569 83.8477 128.516C83.819 128.477 83.7829 128.436 83.7432 128.391L92.0293 126.717L92.9473 126.724L110.562 126.85H127.428L137.432 130.067L137.447 130.072L137.464 130.076C137.668 130.126 137.859 130.062 137.949 130.029C138.065 129.986 138.186 129.925 138.299 129.861C138.412 129.797 138.532 129.72 138.654 129.641C138.677 129.686 138.707 129.732 138.751 129.776C138.9 129.925 139.078 129.926 139.134 129.923C139.202 129.92 139.256 129.904 139.28 129.896C139.656 129.772 140.034 129.566 140.236 129.241C140.305 129.13 140.349 129.005 140.366 128.874C140.562 128.692 140.775 128.494 140.99 128.294C141.41 127.905 141.837 127.502 142.135 127.194C142.279 127.045 142.413 126.897 142.499 126.776C142.528 126.734 142.61 126.619 142.636 126.475C142.65 126.394 142.664 126.202 142.517 126.032C142.374 125.867 142.189 125.85 142.114 125.85H127.585L110.216 120.265L110.201 120.26L110.186 120.256L109.555 120.084C108.12 119.666 106.949 119.116 106.122 118.49C105.173 117.771 104.771 117.03 104.773 116.359V116.357C104.773 115.797 105.051 115.252 105.57 114.724C106.089 114.196 106.812 113.724 107.6 113.326L107.602 113.325C109.134 112.539 111.025 111.956 112.702 111.55C113.558 111.345 114.303 111.007 114.766 110.54C115.002 110.301 115.175 110.016 115.233 109.694C115.293 109.364 115.223 109.042 115.054 108.753C114.731 108.206 114.068 107.805 113.293 107.542C112.498 107.273 111.54 107.132 110.566 107.132H110.565C109.711 107.133 108.867 107.241 108.135 107.451C107.412 107.657 106.786 107.966 106.376 108.375C106.148 108.602 105.79 108.749 105.222 108.865C104.943 108.922 104.634 108.968 104.287 109.017C103.944 109.066 103.566 109.117 103.169 109.184C101.673 109.438 100.003 109.423 98.5361 109.141C97.0482 108.855 95.9813 108.338 95.4854 107.782C95.2485 107.516 95.1749 107.28 95.1846 107.083C95.1945 106.883 95.2943 106.638 95.5674 106.367C96.0361 105.902 96.6446 105.559 97.418 105.239C98.2026 104.913 99.093 104.634 100.149 104.259C102.166 103.543 104.556 103.043 107.123 102.805ZM141.06 126.85C140.834 127.069 140.575 127.315 140.31 127.562C140.167 127.695 140.022 127.829 139.882 127.958C139.794 127.928 139.712 127.925 139.662 127.927C139.568 127.932 139.488 127.958 139.438 127.976C139.332 128.015 139.221 128.074 139.125 128.131C138.928 128.248 138.682 128.418 138.454 128.573C138.216 128.735 137.99 128.886 137.805 128.991C137.729 129.034 137.67 129.062 137.628 129.08L130.694 126.85H141.06ZM81.9004 128.381C81.9182 128.413 81.9318 128.442 81.9395 128.465C81.9653 128.545 81.963 128.613 81.957 128.657C81.9508 128.702 81.9355 128.76 81.8994 128.819C81.8905 128.833 81.8779 128.851 81.8623 128.87L81.5615 128.592L81.4609 129.035C81.3707 129.027 81.2952 128.996 81.2441 128.961C81.1737 128.914 81.1412 128.862 81.1357 128.853L81.5615 128.591L81.9004 128.381ZM82.0371 128.193C81.9842 128.18 81.9305 128.167 81.876 128.154C81.8202 128.069 81.7633 127.989 81.707 127.913L82.0371 128.193ZM87.1543 126.682L82.5947 127.604L81.623 127.799C81.0936 127.121 80.5363 126.798 79.9131 126.866C79.5645 126.904 79.266 127.062 79.0254 127.224C78.7904 127.382 78.5545 127.585 78.3711 127.732C78.1685 127.894 78.0123 128.004 77.874 128.063C77.7528 128.114 77.6751 128.114 77.5996 128.085C77.5055 128.05 77.3428 127.943 77.1211 127.633C76.9523 127.397 76.7651 127.064 76.5586 126.606L87.1543 126.682Z" fill="#F0EEEE" stroke="#F0EEEE"/>
</g>
<path d="M73.8 203.2C72.4667 201.333 71.8 199.467 71.8 197.6C71.8 196.867 71.8 195.433 71.8 193.3C71.8 191.1 71.8 188.8 71.8 186.4C71.8667 184 71.9 181.8 71.9 179.8C71.9 177.733 71.9 176.467 71.9 176C71.8333 174.133 72.2667 172.433 73.2 170.9C73.6 169.967 74.3 169.233 75.3 168.7C76.2333 168.1 77.1667 167.7 78.1 167.5C78.6333 167.433 79.1667 167.433 79.7 167.5C80.3 167.567 80.8333 167.7 81.3 167.9C81.7667 168.1 82.1333 168.367 82.4 168.7C82.7333 169.033 83.0667 169.4 83.4 169.8C84.0667 170.867 84.5333 171.9 84.8 172.9C85.1333 173.833 85.3333 174.867 85.4 176C85.4667 177.067 85.4333 178.267 85.3 179.6C85.2333 180.933 85.2 182.467 85.2 184.2C85.2 185.6 85.1667 186.967 85.1 188.3C85.0333 189.567 85.0667 190.867 85.2 192.2C85.2667 193 85.4667 193.567 85.8 193.9C86.2667 194.367 86.6667 194.633 87 194.7C87.0667 194.767 87.9333 194.833 89.6 194.9C91.2667 194.9 93.1667 194.933 95.3 195C97.4333 195 99.5667 195 101.7 195C103.833 195 105.467 195 106.6 195C107.733 195 108.933 195 110.2 195C111.533 194.933 112.733 195.267 113.8 196C114.533 196.6 115.033 197.367 115.3 198.3C115.567 199.233 115.633 200.2 115.5 201.2C115.367 202.133 115.033 203 114.5 203.8C114.033 204.6 113.367 205.167 112.5 205.5C111.767 205.833 111 206.1 110.2 206.3C109.467 206.433 108.633 206.5 107.7 206.5H82.1C81.1 206.5 80.2 206.433 79.4 206.3C78.6667 206.167 77.9333 205.967 77.2 205.7C76.6 205.567 76 205.267 75.4 204.8C74.8667 204.333 74.3333 203.8 73.8 203.2ZM135.9 214.5C136.833 215.033 137.5 215.933 137.9 217.2C138.367 218.4 138.6 219.567 138.6 220.7V228.4C138.6 230.2 138.133 231.833 137.2 233.3C136.267 234.7 134.9 235.4 133.1 235.4C132.633 235.467 132.167 235.5 131.7 235.5C131.3 235.5 130.867 235.5 130.4 235.5H84.9V239.8H134.1C134.633 239.867 135.1 239.967 135.5 240.1C135.9 240.233 136.333 240.367 136.8 240.5C137.4 240.833 137.833 241.3 138.1 241.9C138.367 242.567 138.5 243.267 138.5 244C138.567 244.733 138.5 245.433 138.3 246.1C138.1 246.833 137.8 247.4 137.4 247.8C136.667 248.667 135.667 249.133 134.4 249.2C133.2 249.333 132.133 249.4 131.2 249.4H86.6H82.3C81.5667 249.4 80.8333 249.367 80.1 249.3C79.4333 249.3 78.7333 249.3 78 249.3C75.9333 249.167 74.5333 248.533 73.8 247.4C73.1333 246.333 72.7333 244.833 72.6 242.9L72.5 235.6C72.5 235.267 72.5 234.7 72.5 233.9C72.5 233.1 72.5333 232.433 72.6 231.9C72.6667 230.767 73 229.867 73.6 229.2C74.6 228.333 75.6667 227.733 76.8 227.4C77.9333 227.133 79.3 227 80.9 227C84.1 227 87.3 227.033 90.5 227.1C93.7 227.1 96.9 227.1 100.1 227.1H122.2H127V222.8H111.9H88.5H79.4H77.6C76.6667 222.8 75.8333 222.567 75.1 222.1C74.3667 221.567 73.8 220.933 73.4 220.2C73.0667 219.4 72.9333 218.567 73 217.7C73.0667 216.767 73.4 215.933 74 215.2C74.6 214.533 75.2667 214.067 76 213.8C76.8 213.467 77.6 213.267 78.4 213.2C79.2667 213.067 80.1333 213 81 213C81.8667 213 82.7 213 83.5 213H84.4H128C131.6 213 134.233 213.5 135.9 214.5ZM149.8 185C149.933 185.4 150 185.8 150 186.2C150 186.6 150 187.067 150 187.6C150 188.667 149.833 189.5 149.5 190.1C148.7 191.367 147.5 192.1 145.9 192.3C145.167 192.433 144.333 192.533 143.4 192.6C142.533 192.6 141.567 192.633 140.5 192.7H138.9V196.4C138.9 197.133 138.9 197.9 138.9 198.7C138.9 199.5 138.833 200.267 138.7 201C138.5 202.733 138 204.3 137.2 205.7C136.467 207.033 135.1 207.7 133.1 207.7C130.967 207.7 129.467 207.067 128.6 205.8C127.733 204.467 127.167 202.867 126.9 201C126.9 200.867 126.867 200.433 126.8 199.7C126.8 198.9 126.8 197.933 126.8 196.8C126.8 195.6 126.8 194.3 126.8 192.9C126.8 191.5 126.8 190.067 126.8 188.6V177.1C126.8 176.767 126.767 176.4 126.7 176C126.7 175.533 126.733 175.1 126.8 174.7C126.933 172.367 127.6 170.5 128.8 169.1C130 167.7 131.867 167.1 134.4 167.3C135.467 167.433 136.3 167.8 136.9 168.4C137.5 168.933 137.933 169.6 138.2 170.4C138.533 171.2 138.733 172.067 138.8 173C138.867 173.867 138.9 174.7 138.9 175.5V179.9V181.5H139.7C140.1 181.5 140.5 181.533 140.9 181.6C141.3 181.6 141.7 181.633 142.1 181.7C142.567 181.7 142.967 181.7 143.3 181.7C143.7 181.7 144.1 181.733 144.5 181.8C144.833 181.867 145.1 181.9 145.3 181.9C145.567 181.9 145.8 181.933 146 182C147.333 182.333 148.267 182.7 148.8 183.1C149.333 183.7 149.667 184.333 149.8 185ZM225.608 240.3C225.474 241.1 225.374 241.867 225.308 242.6C225.241 243.4 225.074 244.2 224.808 245C224.674 245.267 224.574 245.5 224.508 245.7C224.441 245.9 224.341 246.133 224.208 246.4C223.741 247.333 223.141 248.067 222.408 248.6C220.874 249.533 219.174 249.767 217.308 249.3C216.241 249.1 215.374 248.7 214.708 248.1C214.108 247.567 213.641 246.867 213.308 246C213.041 245.2 212.808 244.4 212.608 243.6C212.474 242.8 212.408 242.1 212.408 241.5C212.408 240.9 212.408 240.567 212.408 240.5V179.7C212.408 178.9 212.408 178.033 212.408 177.1C212.408 176.167 212.474 175.233 212.608 174.3C212.741 173.367 212.941 172.5 213.208 171.7C213.474 170.9 213.841 170.267 214.308 169.8C215.041 169.067 215.808 168.633 216.608 168.5C217.408 168.3 218.274 168.2 219.208 168.2C220.341 168.2 221.374 168.533 222.308 169.2C223.308 169.8 224.008 170.667 224.408 171.8C225.008 173.2 225.341 174.667 225.408 176.2C225.474 177.733 225.541 179.267 225.608 180.8V181.3C225.741 186.433 225.774 191.7 225.708 197.1C225.641 202.5 225.608 207.6 225.608 212.4V236.7C225.608 237.3 225.608 237.9 225.608 238.5C225.674 239.1 225.674 239.7 225.608 240.3ZM186.008 237.2C185.141 238.333 184.374 239.533 183.708 240.8C183.041 242.067 182.041 242.967 180.708 243.5C180.174 243.767 179.608 243.9 179.008 243.9C177.674 243.9 176.474 243.3 175.408 242.1C175.074 241.767 174.808 241.433 174.608 241.1C174.474 240.767 174.341 240.433 174.208 240.1C174.141 239.967 174.074 239.867 174.008 239.8C173.941 239.733 173.874 239.633 173.808 239.5C173.341 238.967 172.841 238.133 172.308 237C171.774 235.867 171.241 234.667 170.708 233.4C170.174 232.133 169.674 230.967 169.208 229.9C168.808 228.767 168.508 227.933 168.308 227.4C168.041 227.733 167.608 228.4 167.008 229.4C166.474 230.4 165.908 231.5 165.308 232.7C164.708 233.833 164.141 234.9 163.608 235.9C163.074 236.833 162.708 237.433 162.508 237.7C161.641 238.833 160.908 239.933 160.308 241C159.708 242.133 158.741 242.967 157.408 243.5C156.874 243.767 156.308 243.9 155.708 243.9C154.308 243.9 153.108 243.3 152.108 242.1C151.574 241.567 151.274 240.933 151.208 240.2C151.141 239.467 151.108 238.7 151.108 237.9C151.174 236.7 151.408 235.567 151.808 234.5C152.274 233.433 152.774 232.433 153.308 231.5L161.308 214.5C161.708 213.767 162.008 212.767 162.208 211.5C162.474 210.167 162.641 209.133 162.708 208.4C162.774 207.333 162.808 206.3 162.808 205.3C162.808 204.233 162.808 203.1 162.808 201.9V184.3C162.808 183.633 162.808 183 162.808 182.4C162.808 181.8 162.841 181.167 162.908 180.5C162.908 179.767 162.974 179.033 163.108 178.3C163.241 177.567 163.374 176.9 163.508 176.3C163.641 175.9 163.808 175.467 164.008 175C164.208 174.533 164.441 174.1 164.708 173.7C165.041 173.167 165.474 172.767 166.008 172.5C166.541 172.233 167.108 172.033 167.708 171.9L167.908 171.8C168.841 171.533 169.808 171.6 170.808 172C171.341 172.267 171.774 172.567 172.108 172.9C172.374 173.167 172.574 173.533 172.708 174C172.908 174.467 173.108 174.967 173.308 175.5C173.574 176.167 173.774 176.933 173.908 177.8C174.108 178.6 174.241 179.467 174.308 180.4C174.574 183.2 174.741 186.333 174.808 189.8C174.874 193.267 174.908 196.4 174.908 199.2C174.908 200.067 174.908 200.833 174.908 201.5C174.908 202.1 174.908 202.7 174.908 203.3C174.908 203.9 174.908 204.533 174.908 205.2C174.974 205.867 175.041 206.6 175.108 207.4C175.174 208.8 175.274 210.367 175.408 212.1C175.608 213.767 176.074 215.567 176.808 217.5L179.508 225.2L184.608 215.5C184.808 215.1 184.974 214.633 185.108 214.1C185.241 213.567 185.341 213 185.408 212.4C185.474 211.8 185.508 211.233 185.508 210.7C185.574 210.167 185.608 209.733 185.608 209.4C185.741 208.333 185.808 207.3 185.808 206.3C185.808 205.233 185.808 204.1 185.808 202.9V180.5C185.808 179.767 185.874 179.033 186.008 178.3C186.141 177.567 186.308 176.9 186.508 176.3C186.641 175.9 186.808 175.467 187.008 175C187.208 174.533 187.408 174.1 187.608 173.7C187.941 173.167 188.374 172.767 188.908 172.5C189.441 172.233 190.008 172.033 190.608 171.9L190.808 171.8C191.741 171.533 192.741 171.6 193.808 172C194.341 172.267 194.774 172.567 195.108 172.9C195.374 173.167 195.574 173.533 195.708 174C195.908 174.467 196.108 174.967 196.308 175.5C196.574 176.167 196.774 176.933 196.908 177.8C197.108 178.6 197.241 179.467 197.308 180.4C197.441 181.8 197.541 183.433 197.608 185.3C197.674 187.1 197.741 188.967 197.808 190.9C197.874 192.767 197.908 194.6 197.908 196.4C197.908 198.2 197.908 199.8 197.908 201.2C197.908 202.067 197.908 202.833 197.908 203.5C197.974 204.1 198.008 204.7 198.008 205.3C198.008 205.9 198.008 206.533 198.008 207.2C198.074 207.867 198.108 208.6 198.108 209.4C198.108 210.133 198.208 210.967 198.408 211.9C198.608 212.767 198.841 213.667 199.108 214.6C199.441 215.533 199.741 216.433 200.008 217.3C200.341 218.167 200.674 218.9 201.008 219.5L205.508 230.6C205.574 230.8 205.708 231.1 205.908 231.5C206.108 231.9 206.274 232.333 206.408 232.8C206.608 233.267 206.774 233.733 206.908 234.2C207.041 234.667 207.141 235 207.208 235.2C207.341 235.933 207.474 236.733 207.608 237.6C207.808 238.467 207.708 239.367 207.308 240.3C206.841 241.3 206.208 242.033 205.408 242.5C204.608 243.033 203.841 243.333 203.108 243.4H203.008C201.941 243.4 201.074 243.033 200.408 242.3C199.741 241.567 198.941 240.633 198.008 239.5C197.608 238.967 197.074 238.133 196.408 237C195.808 235.867 195.174 234.667 194.508 233.4C193.841 232.133 193.241 230.967 192.708 229.9C192.174 228.767 191.808 227.933 191.608 227.4L186.008 237.2Z" fill="#F0EEEE"/>
<defs>
<clipPath id="clip0_137_4299">
<rect width="84" height="83.15" fill="white" transform="translate(68.6875 51.998)"/>
</clipPath>
</defs>
</svg>
