<svg viewBox="0 0 20 24" fill="none" xmlns="http://www.w3.org/2000/svg">
<path d="M10 15.25C13.6466 15.25 15.7957 16.5992 17.0508 18.0635C18.357 19.5875 18.75 21.2991 18.75 22C18.75 22.2813 18.6833 22.4091 18.6475 22.4629C18.6065 22.5244 18.5429 22.581 18.4414 22.6318C18.335 22.6851 18.2129 22.7177 18.1074 22.7354C18.0577 22.7436 18.0186 22.7475 17.9971 22.749C17.9866 22.7498 17.9805 22.75 17.9805 22.75H2.01953C2.01953 22.75 2.01336 22.7498 2.00293 22.749C1.98143 22.7475 1.94227 22.7436 1.89258 22.7354C1.78705 22.7177 1.66504 22.6851 1.55859 22.6318C1.45711 22.581 1.39354 22.5244 1.35254 22.4629C1.3167 22.4091 1.25 22.2813 1.25 22C1.25 21.2991 1.64295 19.5875 2.94922 18.0635C4.20434 16.5992 6.35342 15.25 10 15.25ZM10 1.25C11.2598 1.25 12.4676 1.7508 13.3584 2.6416C14.2492 3.5324 14.75 4.74022 14.75 6C14.75 7.25978 14.2492 8.4676 13.3584 9.3584C12.4676 10.2492 11.2598 10.75 10 10.75C8.74022 10.75 7.5324 10.2492 6.6416 9.3584C5.7508 8.4676 5.25 7.25978 5.25 6C5.25 4.74022 5.7508 3.5324 6.6416 2.6416C7.5324 1.7508 8.74022 1.25 10 1.25Z" stroke="#6A71E5" stroke-width="2.5"/>
</svg>
