<svg viewBox="0 0 16 16" fill="none" xmlns="http://www.w3.org/2000/svg">
<path d="M8.00033 8.00016C8.36699 8.00016 8.68099 7.86972 8.94233 7.60883C9.20366 7.34794 9.3341 7.03394 9.33366 6.66683C9.33321 6.29972 9.20277 5.98594 8.94233 5.7255C8.68188 5.46505 8.36788 5.33439 8.00033 5.3335C7.63277 5.33261 7.31899 5.46327 7.05899 5.7255C6.79899 5.98772 6.66833 6.3015 6.66699 6.66683C6.66566 7.03216 6.79633 7.34616 7.05899 7.60883C7.32166 7.8715 7.63544 8.00194 8.00033 8.00016ZM8.00033 14.6668C6.21144 13.1446 4.87544 11.7308 3.99233 10.4255C3.10921 9.12016 2.66744 7.91172 2.66699 6.80016C2.66699 5.1335 3.20321 3.80572 4.27566 2.81683C5.3481 1.82794 6.58966 1.3335 8.00033 1.3335C9.41099 1.3335 10.6528 1.82794 11.7257 2.81683C12.7985 3.80572 13.3345 5.1335 13.3337 6.80016C13.3337 7.91127 12.8921 9.11972 12.009 10.4255C11.1259 11.7313 9.78966 13.1451 8.00033 14.6668Z" fill="#303030"/>
</svg>
