<svg viewBox="0 0 324 103" fill="none" xmlns="http://www.w3.org/2000/svg">
<path d="M149 86C150.067 86.1333 151 86.4 151.8 86.8C152.6 87.2 153.167 87.9333 153.5 89C154.3 91.4 153.433 93.1 150.9 94.1C150.1 94.4333 149.3 94.6333 148.5 94.7C147.7 94.7667 146.933 94.8 146.2 94.8H99.7C98.3667 94.8 96.9667 94.7667 95.5 94.7C94.1 94.7 92.6667 94.6667 91.2 94.6C89.8 94.5333 88.6333 94.0333 87.7 93.1C86.7667 92.1667 86.2333 90.9333 86.1 89.4L85.8 82.4C85.7333 81.6667 85.8 80.8 86 79.8C86.2667 78.8 86.7 77.9667 87.3 77.3C88.2333 76.3 89.4 75.6667 90.8 75.4C92.2 75.0667 93.6333 74.9 95.1 74.9C96.0333 74.9 97.4667 74.9 99.4 74.9C101.4 74.9 104.133 74.9 107.6 74.9C111.067 74.8333 115.433 74.8 120.7 74.8C126.033 74.8 132.5 74.8 140.1 74.8V71H92.9C92.2333 71 91.6333 71 91.1 71C90.5667 71 90.0333 70.9333 89.5 70.8C88.9 70.6667 88.3667 70.5333 87.9 70.4C87.4333 70.2667 87.0333 69.9333 86.7 69.4C85.7667 68 85.5333 66.5667 86 65.1C86.2 64.5667 86.5 64.1667 86.9 63.9C87.3 63.5667 87.7667 63.3 88.3 63.1C88.8333 62.9 89.3333 62.7667 89.8 62.7C90.3333 62.6333 90.8 62.5667 91.2 62.5C92.2 62.3 93.2333 62.2 94.3 62.2C95.3 62.2 96.3 62.2 97.3 62.2C98.3667 62.2 99.6333 62.2 101.1 62.2C102.633 62.2 104.433 62.2333 106.5 62.3C108.633 62.3 111.267 62.3 114.4 62.3C117.533 62.3 121.267 62.3 125.6 62.3C129.933 62.3 135.1 62.3 141.1 62.3C144.5 62.3 147.1 62.8333 148.9 63.9C150.7 64.9 151.6 66.5667 151.6 68.9V76.6C151.6 77.5333 151.367 78.4667 150.9 79.4C150.5 80.2667 149.767 81 148.7 81.6C147.833 82.1333 146.967 82.4 146.1 82.4C145.233 82.4667 144.367 82.5 143.5 82.5H98.1V86H149ZM93.3 13.5C94.1 13.1667 94.8667 13 95.6 13C95.9333 13 96.3 13.0333 96.7 13.1C97.1 13.1 97.4667 13.1667 97.8 13.3C99 13.6333 99.9 14.2333 100.5 15.1C101.033 15.8333 101.4 16.6 101.6 17.4C101.733 17.9333 101.833 18.5 101.9 19.1C101.967 19.7 102.033 20.3 102.1 20.9L102.7 27.1C102.767 27.7 102.767 28.1333 102.7 28.4C102.633 28.6667 102.733 29.0667 103 29.6C103.2 30.1333 103.433 30.5 103.7 30.7C104.033 30.8333 104.4 30.9333 104.8 31C105.2 31 105.6 30.9667 106 30.9C106.4 30.8333 106.8 30.8333 107.2 30.9H136.2C136.933 30.8333 137.7 30.8333 138.5 30.9C139.3 30.9 140.1 30.9 140.9 30.9C142.1 30.9 143.4 31.1 144.8 31.5C146.267 31.8333 147.4 32.6667 148.2 34C148.867 35.0667 149.067 35.9667 148.8 36.7C148.533 37.3667 147.9 38.1333 146.9 39C146.1 39.6667 145.167 40.1667 144.1 40.5C143.1 40.7667 142.067 40.9667 141 41.1C139.933 41.1667 138.833 41.2 137.7 41.2C136.633 41.2 135.6 41.2 134.6 41.2C134.067 41.2 133.5 41.2 132.9 41.2C132.3 41.1333 131.733 41.1333 131.2 41.2H127.8C127.267 41.2 126.067 41.2 124.2 41.2C122.4 41.2 120.467 41.2 118.4 41.2C116.333 41.2 114.367 41.2 112.5 41.2C110.7 41.2 109.533 41.2 109 41.2C108 41.1333 106.967 41.1333 105.9 41.2C104.833 41.2 103.767 41.2 102.7 41.2C101.567 41.2 100.333 41.2 99 41.2C97.7333 41.1333 96.5 40.9333 95.3 40.6C94.1667 40.2667 93.1333 39.7333 92.2 39C91.2667 38.2667 90.6 37.2 90.2 35.8C89.9333 35.0667 89.7 34.4333 89.5 33.9C89.3667 33.3 89.3 32.6333 89.3 31.9C89.3667 31.5667 89.4 30.8667 89.4 29.8C89.4 28.7333 89.3667 27.6 89.3 26.4C89.3 25.1333 89.2667 23.9667 89.2 22.9C89.2 21.8333 89.2 21.1333 89.2 20.8C89.3333 19.9333 89.5 19.1 89.7 18.3C89.9 17.4333 90.2 16.6333 90.6 15.9C90.8667 15.5 91.2667 15.1 91.8 14.7C92.4 14.2333 92.9 13.8333 93.3 13.5ZM90 46.7C90.5333 46.6333 91.1333 46.6 91.8 46.6C92.5333 46.5333 93.2333 46.5 93.9 46.5H96.3H117.9C121.367 46.4333 124.767 46.4 128.1 46.4C130.967 46.4 133.933 46.4 137 46.4C140.133 46.4 142.8 46.4333 145 46.5H145.4C146.733 46.5667 148.067 46.6 149.4 46.6C150.733 46.6 152.033 46.8333 153.3 47.3C155.367 48.1667 156.4 49.6 156.4 51.6C156.4 53.2667 155.733 54.6 154.4 55.6C153.4 56.5333 152.133 57.0667 150.6 57.2C149.067 57.3333 147.633 57.3333 146.3 57.2H89.9C89.8333 57.2 89.5333 57.2 89 57.2C88.4667 57.2 87.8333 57.1333 87.1 57C86.4333 56.8667 85.7333 56.7 85 56.5C84.2667 56.2333 83.6667 55.8333 83.2 55.3C82.8 54.9 82.5 54.4 82.3 53.8C82.1 53.2 82 52.6 82 52C82 50.6667 82.4333 49.5667 83.3 48.7C84.1667 47.9 85.0333 47.4333 85.9 47.3C86.8333 47.1 87.8 46.9333 88.8 46.8C89 46.8 89.2 46.8 89.4 46.8C89.6 46.7333 89.8 46.7 90 46.7ZM165.218 48.2C163.885 46.3333 163.218 44.4667 163.218 42.6C163.218 41.8667 163.218 40.4333 163.218 38.3C163.218 36.1 163.218 33.8 163.218 31.4C163.285 29 163.318 26.8 163.318 24.8C163.318 22.7333 163.318 21.4667 163.318 21C163.251 19.1333 163.685 17.4333 164.618 15.9C165.018 14.9667 165.718 14.2333 166.718 13.7C167.651 13.1 168.585 12.7 169.518 12.5C170.051 12.4333 170.585 12.4333 171.118 12.5C171.718 12.5667 172.251 12.7 172.718 12.9C173.185 13.1 173.551 13.3667 173.818 13.7C174.151 14.0333 174.485 14.4 174.818 14.8C175.485 15.8667 175.951 16.9 176.218 17.9C176.551 18.8333 176.751 19.8667 176.818 21C176.885 22.0667 176.851 23.2667 176.718 24.6C176.651 25.9333 176.618 27.4667 176.618 29.2C176.618 30.6 176.585 31.9667 176.518 33.3C176.451 34.5667 176.485 35.8667 176.618 37.2C176.685 38 176.885 38.5667 177.218 38.9C177.685 39.3667 178.085 39.6333 178.418 39.7C178.485 39.7667 179.351 39.8333 181.018 39.9C182.685 39.9 184.585 39.9333 186.718 40C188.851 40 190.985 40 193.118 40C195.251 40 196.885 40 198.018 40C199.151 40 200.351 40 201.618 40C202.951 39.9333 204.151 40.2667 205.218 41C205.951 41.6 206.451 42.3667 206.718 43.3C206.985 44.2333 207.051 45.2 206.918 46.2C206.785 47.1333 206.451 48 205.918 48.8C205.451 49.6 204.785 50.1667 203.918 50.5C203.185 50.8333 202.418 51.1 201.618 51.3C200.885 51.4333 200.051 51.5 199.118 51.5H173.518C172.518 51.5 171.618 51.4333 170.818 51.3C170.085 51.1667 169.351 50.9667 168.618 50.7C168.018 50.5667 167.418 50.2667 166.818 49.8C166.285 49.3333 165.751 48.8 165.218 48.2ZM227.318 59.5C228.251 60.0333 228.918 60.9333 229.318 62.2C229.785 63.4 230.018 64.5667 230.018 65.7V73.4C230.018 75.2 229.551 76.8333 228.618 78.3C227.685 79.7 226.318 80.4 224.518 80.4C224.051 80.4667 223.585 80.5 223.118 80.5C222.718 80.5 222.285 80.5 221.818 80.5H176.318V84.8H225.518C226.051 84.8667 226.518 84.9667 226.918 85.1C227.318 85.2333 227.751 85.3667 228.218 85.5C228.818 85.8333 229.251 86.3 229.518 86.9C229.785 87.5667 229.918 88.2667 229.918 89C229.985 89.7333 229.918 90.4333 229.718 91.1C229.518 91.8333 229.218 92.4 228.818 92.8C228.085 93.6667 227.085 94.1333 225.818 94.2C224.618 94.3333 223.551 94.4 222.618 94.4H178.018H173.718C172.985 94.4 172.251 94.3667 171.518 94.3C170.851 94.3 170.151 94.3 169.418 94.3C167.351 94.1667 165.951 93.5333 165.218 92.4C164.551 91.3333 164.151 89.8333 164.018 87.9L163.918 80.6C163.918 80.2667 163.918 79.7 163.918 78.9C163.918 78.1 163.951 77.4333 164.018 76.9C164.085 75.7667 164.418 74.8667 165.018 74.2C166.018 73.3333 167.085 72.7333 168.218 72.4C169.351 72.1333 170.718 72 172.318 72C175.518 72 178.718 72.0333 181.918 72.1C185.118 72.1 188.318 72.1 191.518 72.1H213.618H218.418V67.8H203.318H179.918H170.818H169.018C168.085 67.8 167.251 67.5667 166.518 67.1C165.785 66.5667 165.218 65.9333 164.818 65.2C164.485 64.4 164.351 63.5667 164.418 62.7C164.485 61.7667 164.818 60.9333 165.418 60.2C166.018 59.5333 166.685 59.0667 167.418 58.8C168.218 58.4667 169.018 58.2667 169.818 58.2C170.685 58.0667 171.551 58 172.418 58C173.285 58 174.118 58 174.918 58H175.818H219.418C223.018 58 225.651 58.5 227.318 59.5ZM241.218 30C241.351 30.4 241.418 30.8 241.418 31.2C241.418 31.6 241.418 32.0667 241.418 32.6C241.418 33.6667 241.251 34.5 240.918 35.1C240.118 36.3667 238.918 37.1 237.318 37.3C236.585 37.4333 235.751 37.5333 234.818 37.6C233.951 37.6 232.985 37.6333 231.918 37.7H230.318V41.4C230.318 42.1333 230.318 42.9 230.318 43.7C230.318 44.5 230.251 45.2667 230.118 46C229.918 47.7333 229.418 49.3 228.618 50.7C227.885 52.0333 226.518 52.7 224.518 52.7C222.385 52.7 220.885 52.0667 220.018 50.8C219.151 49.4667 218.585 47.8667 218.318 46C218.318 45.8667 218.285 45.4333 218.218 44.7C218.218 43.9 218.218 42.9333 218.218 41.8C218.218 40.6 218.218 39.3 218.218 37.9C218.218 36.5 218.218 35.0667 218.218 33.6V22.1C218.218 21.7667 218.185 21.4 218.118 21C218.118 20.5333 218.151 20.1 218.218 19.7C218.351 17.3667 219.018 15.5 220.218 14.1C221.418 12.7 223.285 12.1 225.818 12.3C226.885 12.4333 227.718 12.8 228.318 13.4C228.918 13.9333 229.351 14.6 229.618 15.4C229.951 16.2 230.151 17.0667 230.218 18C230.285 18.8667 230.318 19.7 230.318 20.5V24.9V26.5H231.118C231.518 26.5 231.918 26.5333 232.318 26.6C232.718 26.6 233.118 26.6333 233.518 26.7C233.985 26.7 234.385 26.7 234.718 26.7C235.118 26.7 235.518 26.7333 235.918 26.8C236.251 26.8667 236.518 26.9 236.718 26.9C236.985 26.9 237.218 26.9333 237.418 27C238.751 27.3333 239.685 27.7 240.218 28.1C240.751 28.7 241.085 29.3333 241.218 30ZM317.026 85.3C316.892 86.1 316.792 86.8667 316.726 87.6C316.659 88.4 316.492 89.2 316.226 90C316.092 90.2667 315.992 90.5 315.926 90.7C315.859 90.9 315.759 91.1333 315.626 91.4C315.159 92.3333 314.559 93.0667 313.826 93.6C312.292 94.5333 310.592 94.7667 308.726 94.3C307.659 94.1 306.792 93.7 306.126 93.1C305.526 92.5667 305.059 91.8667 304.726 91C304.459 90.2 304.226 89.4 304.026 88.6C303.892 87.8 303.826 87.1 303.826 86.5C303.826 85.9 303.826 85.5667 303.826 85.5V24.7C303.826 23.9 303.826 23.0333 303.826 22.1C303.826 21.1667 303.892 20.2333 304.026 19.3C304.159 18.3667 304.359 17.5 304.626 16.7C304.892 15.9 305.259 15.2667 305.726 14.8C306.459 14.0667 307.226 13.6333 308.026 13.5C308.826 13.3 309.692 13.2 310.626 13.2C311.759 13.2 312.792 13.5333 313.726 14.2C314.726 14.8 315.426 15.6667 315.826 16.8C316.426 18.2 316.759 19.6667 316.826 21.2C316.892 22.7333 316.959 24.2667 317.026 25.8V26.3C317.159 31.4333 317.192 36.7 317.126 42.1C317.059 47.5 317.026 52.6 317.026 57.4V81.7C317.026 82.3 317.026 82.9 317.026 83.5C317.092 84.1 317.092 84.7 317.026 85.3ZM277.426 82.2C276.559 83.3333 275.792 84.5333 275.126 85.8C274.459 87.0667 273.459 87.9667 272.126 88.5C271.592 88.7667 271.026 88.9 270.426 88.9C269.092 88.9 267.892 88.3 266.826 87.1C266.492 86.7667 266.226 86.4333 266.026 86.1C265.892 85.7667 265.759 85.4333 265.626 85.1C265.559 84.9667 265.492 84.8667 265.426 84.8C265.359 84.7333 265.292 84.6333 265.226 84.5C264.759 83.9667 264.259 83.1333 263.726 82C263.192 80.8667 262.659 79.6667 262.126 78.4C261.592 77.1333 261.092 75.9667 260.626 74.9C260.226 73.7667 259.926 72.9333 259.726 72.4C259.459 72.7333 259.026 73.4 258.426 74.4C257.892 75.4 257.326 76.5 256.726 77.7C256.126 78.8333 255.559 79.9 255.026 80.9C254.492 81.8333 254.126 82.4333 253.926 82.7C253.059 83.8333 252.326 84.9333 251.726 86C251.126 87.1333 250.159 87.9667 248.826 88.5C248.292 88.7667 247.726 88.9 247.126 88.9C245.726 88.9 244.526 88.3 243.526 87.1C242.992 86.5667 242.692 85.9333 242.626 85.2C242.559 84.4667 242.526 83.7 242.526 82.9C242.592 81.7 242.826 80.5667 243.226 79.5C243.692 78.4333 244.192 77.4333 244.726 76.5L252.726 59.5C253.126 58.7667 253.426 57.7667 253.626 56.5C253.892 55.1667 254.059 54.1333 254.126 53.4C254.192 52.3333 254.226 51.3 254.226 50.3C254.226 49.2333 254.226 48.1 254.226 46.9V29.3C254.226 28.6333 254.226 28 254.226 27.4C254.226 26.8 254.259 26.1667 254.326 25.5C254.326 24.7667 254.392 24.0333 254.526 23.3C254.659 22.5667 254.792 21.9 254.926 21.3C255.059 20.9 255.226 20.4667 255.426 20C255.626 19.5333 255.859 19.1 256.126 18.7C256.459 18.1667 256.892 17.7667 257.426 17.5C257.959 17.2333 258.526 17.0333 259.126 16.9L259.326 16.8C260.259 16.5333 261.226 16.6 262.226 17C262.759 17.2667 263.192 17.5667 263.526 17.9C263.792 18.1667 263.992 18.5333 264.126 19C264.326 19.4667 264.526 19.9667 264.726 20.5C264.992 21.1667 265.192 21.9333 265.326 22.8C265.526 23.6 265.659 24.4667 265.726 25.4C265.992 28.2 266.159 31.3333 266.226 34.8C266.292 38.2667 266.326 41.4 266.326 44.2C266.326 45.0667 266.326 45.8333 266.326 46.5C266.326 47.1 266.326 47.7 266.326 48.3C266.326 48.9 266.326 49.5333 266.326 50.2C266.392 50.8667 266.459 51.6 266.526 52.4C266.592 53.8 266.692 55.3667 266.826 57.1C267.026 58.7667 267.492 60.5667 268.226 62.5L270.926 70.2L276.026 60.5C276.226 60.1 276.392 59.6333 276.526 59.1C276.659 58.5667 276.759 58 276.826 57.4C276.892 56.8 276.926 56.2333 276.926 55.7C276.992 55.1667 277.026 54.7333 277.026 54.4C277.159 53.3333 277.226 52.3 277.226 51.3C277.226 50.2333 277.226 49.1 277.226 47.9V25.5C277.226 24.7667 277.292 24.0333 277.426 23.3C277.559 22.5667 277.726 21.9 277.926 21.3C278.059 20.9 278.226 20.4667 278.426 20C278.626 19.5333 278.826 19.1 279.026 18.7C279.359 18.1667 279.792 17.7667 280.326 17.5C280.859 17.2333 281.426 17.0333 282.026 16.9L282.226 16.8C283.159 16.5333 284.159 16.6 285.226 17C285.759 17.2667 286.192 17.5667 286.526 17.9C286.792 18.1667 286.992 18.5333 287.126 19C287.326 19.4667 287.526 19.9667 287.726 20.5C287.992 21.1667 288.192 21.9333 288.326 22.8C288.526 23.6 288.659 24.4667 288.726 25.4C288.859 26.8 288.959 28.4333 289.026 30.3C289.092 32.1 289.159 33.9667 289.226 35.9C289.292 37.7667 289.326 39.6 289.326 41.4C289.326 43.2 289.326 44.8 289.326 46.2C289.326 47.0667 289.326 47.8333 289.326 48.5C289.392 49.1 289.426 49.7 289.426 50.3C289.426 50.9 289.426 51.5333 289.426 52.2C289.492 52.8667 289.526 53.6 289.526 54.4C289.526 55.1333 289.626 55.9667 289.826 56.9C290.026 57.7667 290.259 58.6667 290.526 59.6C290.859 60.5333 291.159 61.4333 291.426 62.3C291.759 63.1667 292.092 63.9 292.426 64.5L296.926 75.6C296.992 75.8 297.126 76.1 297.326 76.5C297.526 76.9 297.692 77.3333 297.826 77.8C298.026 78.2667 298.192 78.7333 298.326 79.2C298.459 79.6667 298.559 80 298.626 80.2C298.759 80.9333 298.892 81.7333 299.026 82.6C299.226 83.4667 299.126 84.3667 298.726 85.3C298.259 86.3 297.626 87.0333 296.826 87.5C296.026 88.0333 295.259 88.3333 294.526 88.4H294.426C293.359 88.4 292.492 88.0333 291.826 87.3C291.159 86.5667 290.359 85.6333 289.426 84.5C289.026 83.9667 288.492 83.1333 287.826 82C287.226 80.8667 286.592 79.6667 285.926 78.4C285.259 77.1333 284.659 75.9667 284.126 74.9C283.592 73.7667 283.226 72.9333 283.026 72.4L277.426 82.2Z" fill="#6A71E5"/>
<g clip-path="url(#clip0_174_2381)">
<path d="M65.3 52.0999C66.4333 52.1666 67.5667 52.3332 68.7 52.5999C69.9 52.8666 70.9667 53.3666 71.9 54.0999C72.8333 54.8332 73.3 55.8666 73.3 57.1999C73.3 57.8666 73.1667 58.5999 72.9 59.3999C72.7 60.1999 72.4 60.7666 72 61.0999C71.4667 61.6332 70.7667 62.0332 69.9 62.2999C69.1 62.4999 68.3 62.6666 67.5 62.7999C66.7 62.8666 66 62.8999 65.4 62.8999C64.8667 62.8999 64.5667 62.8999 64.5 62.8999L11.2 62.9999C9.66667 63.0666 8.06667 63.0666 6.4 62.9999C4.8 62.9332 3.43333 62.4332 2.3 61.4999C0.766667 60.3666 0 59.0666 0 57.5999C0 56.6666 0.3 55.7332 0.9 54.7999C1.56667 53.7999 2.43333 53.1332 3.5 52.7999C4.9 52.3332 6.33333 52.1332 7.8 52.1999C9.26667 52.1999 10.7667 52.1666 12.3 52.0999C13.9 52.0332 15.2667 51.9999 16.4 51.9999C17.6 51.9999 18.7333 51.9999 19.8 51.9999C20.9333 51.9999 22.1 52.0332 23.3 52.0999C24.5 52.0999 25.9333 52.0999 27.6 52.0999V44.4999C19.2667 44.0332 12.9667 42.5999 8.7 40.1999C4.43333 37.7999 2.3 33.9999 2.3 28.7999C2.3 23.3332 5.16667 19.3332 10.9 16.7999C16.6333 14.2666 25.1 12.9666 36.3 12.8999C41.3667 12.8999 46 13.1666 50.2 13.6999C54.4 14.2332 58 15.1332 61 16.3999C64 17.5999 66.3 19.2332 67.9 21.2999C69.5667 23.2999 70.4 25.7999 70.4 28.7999C70.4 34.3332 68 38.2999 63.2 40.6999C58.4667 43.0332 51.2667 44.3666 41.6 44.6999C41.6667 45.8999 41.7 47.2332 41.7 48.6999C41.7667 50.1666 41.8 51.2999 41.8 52.0999C43.6667 52.0999 45.6667 52.0999 47.8 52.0999C49.9333 52.0332 52.0667 51.9999 54.2 51.9999C56.3333 51.9999 58.3667 51.9999 60.3 51.9999C62.2333 51.9999 63.9 52.0332 65.3 52.0999ZM56.7 28.7999C56.7 27.7332 56.2 26.7999 55.2 25.9999C54.2 25.1999 52.8 24.5332 51 23.9999C49.2 23.4666 47.0333 23.0666 44.5 22.7999C42.0333 22.5332 39.3 22.3999 36.3 22.3999C23.1667 22.3999 16.6 24.5332 16.6 28.7999C16.6 30.6666 18.2667 32.1332 21.6 33.1999C25 34.2666 29.8333 34.7666 36.1 34.6999C38.5 34.6999 40.9 34.6332 43.3 34.4999C45.7667 34.2999 48 33.9999 50 33.5999C52 33.1332 53.6 32.5332 54.8 31.7999C56.0667 30.9999 56.7 29.9999 56.7 28.7999Z" fill="#6A71E5"/>
<path d="M34.0273 63.4976C36.2857 63.2602 38.6264 63.2924 40.8535 63.5913C42.0163 63.7474 42.579 63.7971 43.0928 63.9067C43.579 64.0106 44.0134 64.1682 44.8721 64.5552C46.4985 65.2882 48.1958 66.7771 48.9932 67.8062C49.1992 68.3027 49.2419 68.6175 49.2207 68.9155C49.1963 69.2592 49.0952 69.5814 48.9561 70.1733C48.8319 70.4293 48.7262 70.6968 48.626 70.9507C48.5158 71.2298 48.4101 71.4979 48.2822 71.7622C48.0314 72.2808 47.7016 72.7715 47.1328 73.1938C46.3902 73.7453 46.0366 74.4757 45.7119 74.9585C45.6413 75.0635 45.5664 75.164 45.4863 75.2612L44.6484 74.9507C44.5835 74.8985 44.5045 74.8572 44.4111 74.8394C44.2622 74.8109 44.1388 74.8508 44.0732 74.8774L42.8828 75.3618L43.792 75.6987C43.7824 75.7325 43.773 75.7696 43.7617 75.8091C43.7173 75.9646 43.6523 76.191 43.6387 76.3755C43.6333 76.448 43.6217 76.6437 43.7354 76.8218C43.8058 76.932 43.9174 77.0245 44.0625 77.0649C44.1939 77.1016 44.3116 77.0841 44.3906 77.063L44.3945 77.062C44.9681 76.9035 45.3936 76.6785 45.7285 76.4175L67.4971 84.4937L67.5146 84.4995L67.5332 84.5054C69.919 85.1888 71.715 86.2264 72.7012 87.4077C73.7249 88.6341 74.075 89.8373 73.4912 90.9146C72.7733 92.2393 71.8091 93.782 69.7529 94.563C68.7088 94.9595 67.3077 95.1586 65.7852 95.2544C64.2694 95.3498 62.6793 95.3405 61.2666 95.3403L37.4307 95.3384L11.9902 95.3403C11.2785 95.3399 10.5856 95.3614 9.92188 95.3804C9.25525 95.3995 8.61799 95.4162 8.00098 95.4067C6.76595 95.3878 5.64553 95.2643 4.6084 94.8706C2.57967 94.1005 1.69445 92.2959 0.939453 90.9136C0.31439 89.7692 0.445388 88.5616 1.39551 87.4116C1.92819 86.7669 2.6556 85.892 3.54395 85.0923C4.43323 84.2917 5.45499 83.5931 6.56445 83.27L22.5645 78.8218L22.5693 78.8208C23.7223 78.4876 24.829 78.6473 26.2803 78.8364C27.62 79.0111 28.4887 79.4356 29.1494 79.9966C29.2265 80.062 29.3033 80.1843 29.3525 80.3931C29.4013 80.6001 29.4141 80.8566 29.3936 81.1372C29.3518 81.7071 29.1805 82.2733 29.0312 82.5542C28.9131 82.7762 28.6751 82.9868 28.2637 83.1938C27.8535 83.4003 27.3249 83.5765 26.6924 83.7593L14.1338 87.3423H6.2832L5.8418 86.1118L5.53906 87.3423H5.05566C4.77723 87.3419 4.62448 87.5351 4.57227 87.6167C4.51277 87.7098 4.48063 87.8103 4.46191 87.8823C4.42247 88.0342 4.40386 88.2169 4.39648 88.3911C4.38183 88.7377 4.40841 89.1749 4.49707 89.4966C4.52004 89.5799 4.55119 89.6704 4.59473 89.7554C4.63492 89.8338 4.70701 89.9483 4.83008 90.0347C4.97597 90.137 5.16795 90.1788 5.3623 90.1167C5.52563 90.0644 5.63733 89.9551 5.70508 89.8735C5.81834 89.737 5.9145 89.5458 6.00488 89.3198C6.07097 89.4513 6.13563 89.5707 6.2002 89.6782C6.42794 90.0572 6.68497 90.3548 7.00293 90.4976C7.36653 90.6607 7.70476 90.5798 7.96289 90.4272C8.19474 90.2902 8.39301 90.0797 8.54395 89.9126C8.71473 89.7236 8.8408 89.5718 8.97949 89.4448C9.11752 89.3185 9.19881 89.2842 9.23828 89.2778C9.24777 89.2762 9.30585 89.2624 9.44238 89.3774C9.57316 89.4877 9.74171 89.6947 9.95215 90.0532C9.94836 90.081 9.94586 90.1076 9.94336 90.1313C9.92586 90.2979 9.91484 90.5235 9.91211 90.7407C9.9094 90.9568 9.91418 91.1872 9.93066 91.3599C9.93773 91.4339 9.95057 91.5454 9.98438 91.6421C9.99408 91.6698 10.0112 91.7126 10.0391 91.7583C10.0638 91.7987 10.1216 91.8817 10.2285 91.9429C10.307 91.9877 10.3958 92.0079 10.4863 92.0073C10.9164 92.0961 11.3255 92.0547 11.668 91.8618C12.0413 91.6515 12.2752 91.2974 12.3682 90.8979C12.5039 90.3148 12.3492 89.6379 11.9316 89.0103L14.2744 88.3423H57.3291L61.4141 89.5942C61.48 89.6787 61.5458 89.7657 61.6045 89.8403C61.6802 89.9365 61.7398 90.0183 61.7842 90.0825C61.7661 90.1848 61.7667 90.3618 61.9102 90.5151C62.044 90.6582 62.2069 90.671 62.25 90.6733C62.3094 90.6765 62.356 90.6685 62.376 90.6646C62.4187 90.6561 62.4527 90.6441 62.4658 90.6392C62.5478 90.6084 62.632 90.5546 62.7012 90.4741C62.7732 90.4242 62.876 90.3558 63.0039 90.271C63.3443 90.0454 63.7536 89.7791 64.2275 89.4653C64.6772 89.1676 65.1333 88.8608 65.4551 88.6265C65.6115 88.5126 65.7558 88.4023 65.8516 88.313C65.8767 88.2895 65.905 88.2616 65.9316 88.231C65.9533 88.2061 65.9966 88.153 66.0303 88.0806C66.0517 88.0344 66.1572 87.7889 65.9795 87.5503C65.824 87.3417 65.5933 87.3424 65.5586 87.3423H57.4785L36.7598 80.9937H36.7607L36.751 80.9917L36.1973 80.8208C34.9394 80.4047 33.9141 79.8582 33.1904 79.2368C32.3645 78.5275 31.9957 77.7802 31.998 77.0806V77.0786C31.9981 76.4959 32.2534 75.9429 32.707 75.4194C33.1626 74.8937 33.796 74.4254 34.4863 74.0288L34.4883 74.0269C35.8334 73.2442 37.4963 72.6631 38.9736 72.2573C39.743 72.0475 40.4154 71.7023 40.8311 71.2261C41.2716 70.7213 41.3984 70.0854 41.0859 69.4829C40.8009 68.9335 40.2061 68.5239 39.5049 68.2544C38.7895 67.9795 37.9292 67.8366 37.0576 67.8364C36.2925 67.8366 35.5352 67.9471 34.877 68.1606C34.2266 68.3717 33.6612 68.6869 33.293 69.104C33.1013 69.32 32.8024 69.4612 32.3115 69.5747C32.0693 69.6307 31.7998 69.6767 31.4932 69.7261C31.1909 69.7747 30.8548 69.827 30.502 69.895C29.1944 70.1471 27.7331 70.1312 26.4512 69.8521C25.1525 69.5692 24.2277 69.0584 23.7969 68.5103C23.59 68.247 23.517 68.0021 23.5264 67.7837C23.5347 67.5911 23.6091 67.3748 23.7861 67.145L23.8691 67.0454C24.2787 66.5843 24.8087 66.2455 25.4854 65.9272C26.1757 65.6026 26.9553 65.3257 27.8936 64.9478C29.6659 64.2339 31.7682 63.735 34.0273 63.4976ZM10.6279 88.3423L10.083 88.4976L10.709 89.1001C11.344 89.7119 11.4735 90.3279 11.3936 90.6714C11.3551 90.8364 11.2732 90.9364 11.1768 90.9907C11.1182 91.0236 11.0326 91.0482 10.9141 91.0503C10.9115 90.9602 10.9108 90.8585 10.9121 90.7534C10.9146 90.5525 10.9244 90.3604 10.9375 90.2358C10.9451 90.1639 10.9503 90.149 10.9453 90.1655C10.9433 90.1722 10.9365 90.1963 10.9209 90.2271C10.9115 90.2455 10.8669 90.3338 10.7637 90.4038C10.704 90.4443 10.6171 90.4831 10.5088 90.4878C10.3992 90.4925 10.3062 90.4602 10.2383 90.4204C10.122 90.3522 10.0708 90.2576 10.0605 90.2388L10.5 90.0005L10.9395 89.7612C10.6553 89.2386 10.3764 88.8575 10.0859 88.6128C9.94069 88.4905 9.78707 88.3988 9.62695 88.3423H10.6279ZM8.88184 88.3423C8.64479 88.4248 8.45171 88.572 8.30469 88.7065C8.11948 88.8761 7.93743 89.0915 7.80176 89.2417C7.6462 89.4139 7.53916 89.5156 7.4541 89.5659C7.42655 89.5822 7.41181 89.5866 7.4082 89.5874C7.41692 89.5865 7.42115 89.5895 7.41211 89.5854C7.37462 89.5684 7.25015 89.484 7.05762 89.1636C6.93779 88.9641 6.80683 88.6955 6.66016 88.3423H8.88184ZM64.1084 88.3423C63.9681 88.4366 63.8229 88.5349 63.6758 88.6323C63.5375 88.7239 63.3911 88.8189 63.2471 88.9136L63.2119 88.8677L63.165 88.8169C63.1107 88.7638 63.0333 88.7065 62.9287 88.6733C62.8546 88.6498 62.7837 88.6442 62.7188 88.6489C62.6476 88.6201 62.5642 88.5867 62.4688 88.5483C62.3075 88.4836 62.1142 88.4095 61.9492 88.3638C61.9223 88.3563 61.8922 88.3494 61.8604 88.3423H64.1084ZM61.4375 88.3423L61.3584 88.3735C61.3082 88.398 61.2551 88.4339 61.2061 88.4839L60.7422 88.3423H61.4375Z" fill="#6A71E5" stroke="#6A71E5"/>
</g>
<defs>
<clipPath id="clip0_174_2381">
<rect width="74" height="84" fill="white" transform="translate(0 12)"/>
</clipPath>
</defs>
</svg>
