<svg width="21" height="25" viewBox="0 0 21 25" fill="currentColor" xmlns="http://www.w3.org/2000/svg">
<path d="M10.5 15.75C14.1466 15.75 16.2957 17.0992 17.5508 18.5635C18.857 20.0875 19.25 21.7991 19.25 22.5C19.25 22.7813 19.1833 22.9091 19.1475 22.9629C19.1065 23.0244 19.0429 23.081 18.9414 23.1318C18.835 23.1851 18.7129 23.2177 18.6074 23.2354C18.5577 23.2436 18.5186 23.2475 18.4971 23.249C18.4866 23.2498 18.4805 23.25 18.4805 23.25H2.51953C2.51953 23.25 2.51336 23.2498 2.50293 23.249C2.48143 23.2475 2.44227 23.2436 2.39258 23.2354C2.28705 23.2177 2.16504 23.1851 2.05859 23.1318C1.95711 23.081 1.89354 23.0244 1.85254 22.9629C1.8167 22.9091 1.75 22.7813 1.75 22.5C1.75 21.7991 2.14295 20.0875 3.44922 18.5635C4.70434 17.0992 6.85342 15.75 10.5 15.75ZM10.5 1.75C11.7598 1.75 12.9676 2.2508 13.8584 3.1416C14.7492 4.0324 15.25 5.24022 15.25 6.5C15.25 7.75978 14.7492 8.9676 13.8584 9.8584C12.9676 10.7492 11.7598 11.25 10.5 11.25C9.24022 11.25 8.0324 10.7492 7.1416 9.8584C6.2508 8.9676 5.75 7.75978 5.75 6.5C5.75 5.24022 6.2508 4.0324 7.1416 3.1416C8.0324 2.2508 9.24022 1.75 10.5 1.75Z" fill="currentColor" stroke="#6A71E5" stroke-width="2.5"/>
</svg>
