<svg width="24" height="25" viewBox="0 0 24 25" fill="none" xmlns="http://www.w3.org/2000/svg">
<path d="M12 1.5C11.4696 1.5 10.9609 1.71071 10.5858 2.08579C10.2107 2.46086 10 2.96957 10 3.5C9.99298 3.59654 9.99298 3.69346 10 3.79C7.12 4.64 5 7.32 5 10.5V16.5L3 18.5V19.5H21V18.5L19 16.5V10.5C19 7.32 16.88 4.64 14 3.79C14.007 3.69346 14.007 3.59654 14 3.5C14 2.96957 13.7893 2.46086 13.4142 2.08579C13.0391 1.71071 12.5304 1.5 12 1.5ZM10 20.5C10 21.0304 10.2107 21.5391 10.5858 21.9142C10.9609 22.2893 11.4696 22.5 12 22.5C12.5304 22.5 13.0391 22.2893 13.4142 21.9142C13.7893 21.5391 14 21.0304 14 20.5H10Z" fill="#6A71E5"/>
</svg>
