<svg viewBox="0 0 29 24" fill="none" xmlns="http://www.w3.org/2000/svg">
<path d="M10.5791 1.25V1.33301C10.5791 2.40114 10.9747 3.34694 11.7305 4.10156C12.4862 4.85603 13.4321 5.25 14.5 5.25C15.5679 5.25 16.5138 4.85603 17.2695 4.10156C18.0253 3.34694 18.4209 2.40114 18.4209 1.33301V1.25H19.8428L27.2334 5.48438L27.2373 5.48633C27.2387 5.49054 27.2413 5.49639 27.2432 5.50391C27.2481 5.52383 27.2496 5.53657 27.25 5.54297V5.55176C27.2499 5.55212 27.2495 5.5532 27.249 5.55469C27.2479 5.55788 27.2448 5.56596 27.2373 5.5791L24.5742 10.2314C24.5459 10.2359 24.5096 10.2357 24.4355 10.1963L24.4209 10.1885L24.4062 10.1816L23.0713 9.51465L21.2627 8.6123V22.667C21.2627 22.6904 21.2611 22.7048 21.2598 22.7119C21.2594 22.7139 21.2591 22.7156 21.2588 22.7168C21.2583 22.7175 21.2544 22.7232 21.2451 22.7324C21.2366 22.7408 21.2316 22.7443 21.2305 22.7451H21.2314C21.2303 22.7455 21.2277 22.7463 21.2236 22.7471C21.2162 22.7484 21.2014 22.75 21.1777 22.75H7.82227C7.79862 22.75 7.78382 22.7484 7.77637 22.7471C7.77229 22.7463 7.76969 22.7455 7.76855 22.7451H7.76953C7.76836 22.7443 7.76337 22.7409 7.75488 22.7324C7.74565 22.7232 7.74166 22.7175 7.74121 22.7168C7.74093 22.7156 7.7406 22.7139 7.74023 22.7119C7.73894 22.7048 7.73732 22.6904 7.7373 22.667V8.4873L5.88574 9.50391L4.5498 10.2373L4.54102 10.2422L4.53223 10.248C4.51877 10.2557 4.51016 10.2586 4.50684 10.2598C4.50449 10.2606 4.50333 10.2607 4.50293 10.2607C4.50288 10.2607 4.49973 10.2612 4.49316 10.2607C4.4863 10.2603 4.47324 10.2589 4.45312 10.2539C4.44508 10.2519 4.43897 10.2495 4.43457 10.248L4.43359 10.2461L1.7627 5.5791C1.75518 5.56596 1.75209 5.55788 1.75098 5.55469C1.75046 5.5532 1.75009 5.55212 1.75 5.55176V5.54297C1.75042 5.53657 1.75187 5.52383 1.75684 5.50391C1.75867 5.49657 1.76032 5.49052 1.76172 5.48633C1.76253 5.48585 1.76373 5.48588 1.76465 5.48535L1.7666 5.48438L9.15723 1.25H10.5791Z" stroke="#6A71E5" stroke-width="2.5"/>
</svg>
