<svg width="29" height="25" viewBox="0 0 29 25" fill="currentColor" xmlns="http://www.w3.org/2000/svg">
<path d="M10.5791 1.75V1.83301C10.5791 2.90114 10.9747 3.84694 11.7305 4.60156C12.4862 5.35603 13.4321 5.75 14.5 5.75C15.5679 5.75 16.5138 5.35603 17.2695 4.60156C18.0253 3.84694 18.4209 2.90114 18.4209 1.83301V1.75H19.8428L27.2334 5.98438L27.2373 5.98633C27.2387 5.99054 27.2413 5.99639 27.2432 6.00391C27.2481 6.02383 27.2496 6.03657 27.25 6.04297V6.05176C27.2499 6.05212 27.2495 6.0532 27.249 6.05469C27.2479 6.05788 27.2448 6.06596 27.2373 6.0791L24.5742 10.7314C24.5459 10.7359 24.5096 10.7357 24.4355 10.6963L24.4209 10.6885L24.4062 10.6816L23.0713 10.0146L21.2627 9.1123V23.167C21.2627 23.1904 21.2611 23.2048 21.2598 23.2119C21.2594 23.2139 21.2591 23.2156 21.2588 23.2168C21.2583 23.2175 21.2544 23.2232 21.2451 23.2324C21.2366 23.2408 21.2316 23.2443 21.2305 23.2451H21.2314C21.2303 23.2455 21.2277 23.2463 21.2236 23.2471C21.2162 23.2484 21.2014 23.25 21.1777 23.25H7.82227C7.79862 23.25 7.78382 23.2484 7.77637 23.2471C7.77229 23.2463 7.76969 23.2455 7.76855 23.2451H7.76953C7.76836 23.2443 7.76337 23.2409 7.75488 23.2324C7.74565 23.2232 7.74166 23.2175 7.74121 23.2168C7.74093 23.2156 7.7406 23.2139 7.74023 23.2119C7.73894 23.2048 7.73732 23.1904 7.7373 23.167V8.9873L5.88574 10.0039L4.5498 10.7373L4.54102 10.7422L4.53223 10.748C4.51877 10.7557 4.51016 10.7586 4.50684 10.7598C4.50449 10.7606 4.50333 10.7607 4.50293 10.7607C4.50288 10.7607 4.49973 10.7612 4.49316 10.7607C4.4863 10.7603 4.47324 10.7589 4.45312 10.7539C4.44508 10.7519 4.43897 10.7495 4.43457 10.748L4.43359 10.7461L1.7627 6.0791C1.75518 6.06596 1.75209 6.05788 1.75098 6.05469C1.75046 6.0532 1.75009 6.05212 1.75 6.05176V6.04297C1.75042 6.03657 1.75187 6.02383 1.75684 6.00391C1.75867 5.99657 1.76032 5.99052 1.76172 5.98633C1.76253 5.98585 1.76373 5.98588 1.76465 5.98535L1.7666 5.98438L9.15723 1.75H10.5791Z" fill="currentColor" stroke="#6A71E5" stroke-width="2.5"/>
</svg>
