<svg width="14" height="12" viewBox="0 0 14 12" fill="none" xmlns="http://www.w3.org/2000/svg">
<path d="M7.36842 12V9.82941L11.4395 5.94706C11.55 5.84118 11.6728 5.76471 11.8079 5.71765C11.943 5.67059 12.0781 5.64706 12.2132 5.64706C12.3605 5.64706 12.5018 5.67353 12.6368 5.72647C12.7719 5.77941 12.8947 5.85882 13.0053 5.96471L13.6868 6.61765C13.7851 6.72353 13.8618 6.84118 13.9171 6.97059C13.9724 7.1 14 7.22941 14 7.35882C14 7.48824 13.9754 7.62059 13.9263 7.75588C13.8772 7.89118 13.7974 8.01176 13.6868 8.11765L9.63421 12H7.36842ZM0 11.2941V9.31765C0 8.91765 0.107456 8.55 0.322368 8.21471C0.537281 7.87941 0.822807 7.62353 1.17895 7.44706C1.94035 7.08235 2.71404 6.80882 3.5 6.62647C4.28596 6.44412 5.08421 6.35294 5.89474 6.35294C6.34912 6.35294 6.79737 6.37941 7.23947 6.43235C7.68158 6.48529 8.12368 6.57059 8.56579 6.68824L5.89474 9.24706V11.2941H0ZM12.2132 8.04706L12.8947 7.35882L12.2132 6.70588L11.5132 7.37647L12.2132 8.04706ZM5.89474 5.64706C5.08421 5.64706 4.39035 5.37059 3.81316 4.81765C3.23596 4.26471 2.94737 3.6 2.94737 2.82353C2.94737 2.04706 3.23596 1.38235 3.81316 0.829412C4.39035 0.276471 5.08421 0 5.89474 0C6.70526 0 7.39912 0.276471 7.97632 0.829412C8.55351 1.38235 8.84211 2.04706 8.84211 2.82353C8.84211 3.6 8.55351 4.26471 7.97632 4.81765C7.39912 5.37059 6.70526 5.64706 5.89474 5.64706Z" fill="black"/>
</svg>
